<svg xmlns="http://www.w3.org/2000/svg" width="199" height="177" viewBox="0 0 199 177" version="1.1">
	<path d="M 95.157 52.151 L 95.328 100.500 80.987 100.460 L 66.645 100.420 94.573 127.748 C 109.933 142.779, 125.611 157.647, 129.413 160.788 L 136.326 166.500 160.413 167.050 C 173.661 167.353, 184.659 167.494, 184.854 167.363 C 185.048 167.233, 173.617 155.672, 159.450 141.673 L 133.693 116.219 137.596 113.786 C 139.743 112.448, 145.325 109.310, 150 106.812 C 154.675 104.315, 160.075 101.382, 162 100.296 C 163.925 99.209, 168.988 96.408, 173.250 94.070 C 177.512 91.732, 181 89.608, 181 89.349 C 181 88.542, 104.760 12.038, 99.743 7.810 L 94.986 3.802 95.157 52.151 M 76 31.162 C 67.475 38.907, 56.926 48.452, 52.559 52.372 C 48.191 56.292, 41.891 62.024, 38.559 65.108 C 35.226 68.193, 28.806 74.003, 24.291 78.020 C 19.776 82.037, 16.315 85.701, 16.600 86.162 C 16.885 86.623, 20.691 87, 25.059 87 L 33 87 33 125.882 L 33 164.765 74.750 165.416 C 97.713 165.774, 118.075 166.165, 120 166.284 C 121.925 166.403, 123.725 166.196, 124 165.824 C 124.275 165.452, 120.063 160.390, 114.640 154.574 L 104.779 144 95.140 143.996 C 89.838 143.994, 79.763 143.699, 72.750 143.342 L 60 142.691 60 112.449 L 60 82.206 76 68 L 92 53.794 92 35.397 C 92 25.279, 91.888 17.018, 91.750 17.040 C 91.612 17.062, 84.525 23.416, 76 31.162" stroke="none" fill="black" fill-rule="evenodd"/>
</svg>